<svg width="30" height="30" viewBox="0 0 30 30" fill="none" xmlns="http://www.w3.org/2000/svg">
<rect width="6" height="6" fill="white"/>
<rect width="6" height="6" fill="white"/>
<rect width="6" height="6" fill="white"/>
<rect width="6" height="6" fill="white"/>
<rect y="12" width="6" height="6" fill="white"/>
<rect y="12" width="6" height="6" fill="white"/>
<rect y="12" width="6" height="6" fill="white"/>
<rect y="12" width="6" height="6" fill="white"/>
<rect y="24" width="6" height="6" fill="white"/>
<rect y="24" width="6" height="6" fill="white"/>
<rect y="24" width="6" height="6" fill="white"/>
<rect y="24" width="6" height="6" fill="white"/>
<rect x="12" width="6" height="6" fill="white"/>
<rect x="12" width="6" height="6" fill="white"/>
<rect x="12" width="6" height="6" fill="white"/>
<rect x="12" width="6" height="6" fill="white"/>
<rect x="12" y="12" width="6" height="6" fill="white"/>
<rect x="12" y="12" width="6" height="6" fill="white"/>
<rect x="12" y="12" width="6" height="6" fill="white"/>
<rect x="12" y="12" width="6" height="6" fill="white"/>
<rect x="12" y="24" width="6" height="6" fill="white"/>
<rect x="12" y="24" width="6" height="6" fill="white"/>
<rect x="12" y="24" width="6" height="6" fill="white"/>
<rect x="12" y="24" width="6" height="6" fill="white"/>
<rect x="24" width="6" height="6" fill="white"/>
<rect x="24" width="6" height="6" fill="white"/>
<rect x="24" width="6" height="6" fill="white"/>
<rect x="24" width="6" height="6" fill="white"/>
<rect x="24" y="12" width="6" height="6" fill="white"/>
<rect x="24" y="12" width="6" height="6" fill="white"/>
<rect x="24" y="12" width="6" height="6" fill="white"/>
<rect x="24" y="12" width="6" height="6" fill="white"/>
<rect x="24" y="24" width="6" height="6" fill="white"/>
<rect x="24" y="24" width="6" height="6" fill="white"/>
<rect x="24" y="24" width="6" height="6" fill="white"/>
<rect x="24" y="24" width="6" height="6" fill="white"/>
</svg>
