<svg width="130" height="30" viewBox="0 0 130 30" fill="none" xmlns="http://www.w3.org/2000/svg">
<rect width="130" height="30" rx="5" fill="white"/>
<path d="M27.1493 13.62H25.7089C25.6535 13.3123 25.5504 13.0414 25.3996 12.8075C25.2488 12.5736 25.0642 12.3751 24.8457 12.212C24.6271 12.0489 24.3825 11.9258 24.1116 11.8427C23.8439 11.7596 23.5592 11.718 23.2576 11.718C22.7128 11.718 22.225 11.855 21.7942 12.1289C21.3664 12.4028 21.0278 12.8045 20.7785 13.3338C20.5323 13.8632 20.4092 14.5095 20.4092 15.2727C20.4092 16.0421 20.5323 16.6915 20.7785 17.2209C21.0278 17.7502 21.3679 18.1503 21.7988 18.4212C22.2296 18.692 22.7144 18.8274 23.253 18.8274C23.5515 18.8274 23.8346 18.7874 24.1024 18.7074C24.3732 18.6243 24.6179 18.5027 24.8364 18.3427C25.0549 18.1826 25.2396 17.9872 25.3904 17.7564C25.5443 17.5225 25.6505 17.2547 25.7089 16.9531L27.1493 16.9577C27.0723 17.4225 26.9231 17.8503 26.7015 18.2411C26.483 18.6289 26.2014 18.9644 25.8567 19.2475C25.515 19.5276 25.1242 19.7446 24.6841 19.8984C24.244 20.0523 23.7639 20.1293 23.2437 20.1293C22.4251 20.1293 21.6957 19.9354 21.0555 19.5476C20.4154 19.1567 19.9106 18.5981 19.5413 17.8718C19.1751 17.1455 18.992 16.2791 18.992 15.2727C18.992 14.2633 19.1766 13.3969 19.5459 12.6737C19.9153 11.9473 20.42 11.3903 21.0601 11.0025C21.7003 10.6116 22.4282 10.4162 23.2437 10.4162C23.7454 10.4162 24.2132 10.4885 24.6471 10.6332C25.0842 10.7747 25.4766 10.984 25.8243 11.261C26.1721 11.5349 26.4599 11.8704 26.6876 12.2674C26.9154 12.6613 27.0693 13.1122 27.1493 13.62ZM31.7323 20.1431C31.0675 20.1431 30.4874 19.9908 29.9919 19.6861C29.4964 19.3814 29.1117 18.9551 28.8378 18.4073C28.5638 17.8595 28.4269 17.2193 28.4269 16.4869C28.4269 15.7513 28.5638 15.1081 28.8378 14.5572C29.1117 14.0063 29.4964 13.5785 29.9919 13.2738C30.4874 12.9691 31.0675 12.8168 31.7323 12.8168C32.3971 12.8168 32.9772 12.9691 33.4727 13.2738C33.9682 13.5785 34.3529 14.0063 34.6268 14.5572C34.9007 15.1081 35.0377 15.7513 35.0377 16.4869C35.0377 17.2193 34.9007 17.8595 34.6268 18.4073C34.3529 18.9551 33.9682 19.3814 33.4727 19.6861C32.9772 19.9908 32.3971 20.1431 31.7323 20.1431ZM31.7369 18.9844C32.1678 18.9844 32.5248 18.8705 32.8079 18.6428C33.0911 18.415 33.3003 18.1119 33.4358 17.7333C33.5743 17.3548 33.6435 16.9377 33.6435 16.4822C33.6435 16.0298 33.5743 15.6143 33.4358 15.2358C33.3003 14.8542 33.0911 14.5479 32.8079 14.3171C32.5248 14.0863 32.1678 13.9709 31.7369 13.9709C31.3029 13.9709 30.9429 14.0863 30.6566 14.3171C30.3735 14.5479 30.1627 14.8542 30.0242 15.2358C29.8888 15.6143 29.8211 16.0298 29.8211 16.4822C29.8211 16.9377 29.8888 17.3548 30.0242 17.7333C30.1627 18.1119 30.3735 18.415 30.6566 18.6428C30.9429 18.8705 31.3029 18.9844 31.7369 18.9844ZM37.9588 15.7898V20H36.5784V12.9091H37.9034V14.0632H37.9911C38.1542 13.6877 38.4096 13.3861 38.7574 13.1584C39.1083 12.9306 39.5499 12.8168 40.0823 12.8168C40.5655 12.8168 40.9887 12.9183 41.3519 13.1214C41.715 13.3215 41.9966 13.62 42.1967 14.017C42.3967 14.4141 42.4968 14.9049 42.4968 15.4897V20H41.1164V15.6559C41.1164 15.1419 40.9825 14.7403 40.7148 14.451C40.447 14.1586 40.0793 14.0124 39.6115 14.0124C39.2914 14.0124 39.0067 14.0817 38.7574 14.2202C38.5112 14.3587 38.3158 14.5618 38.1711 14.8295C38.0295 15.0942 37.9588 15.4143 37.9588 15.7898ZM45.7283 15.7898V20H44.348V12.9091H45.6729V14.0632H45.7606C45.9237 13.6877 46.1792 13.3861 46.5269 13.1584C46.8778 12.9306 47.3194 12.8168 47.8519 12.8168C48.3351 12.8168 48.7582 12.9183 49.1214 13.1214C49.4846 13.3215 49.7662 13.62 49.9662 14.017C50.1663 14.4141 50.2663 14.9049 50.2663 15.4897V20H48.886V15.6559C48.886 15.1419 48.7521 14.7403 48.4843 14.451C48.2166 14.1586 47.8488 14.0124 47.381 14.0124C47.0609 14.0124 46.7762 14.0817 46.5269 14.2202C46.2807 14.3587 46.0853 14.5618 45.9406 14.8295C45.7991 15.0942 45.7283 15.4143 45.7283 15.7898ZM55.1736 20.1431C54.475 20.1431 53.8733 19.9938 53.3686 19.6953C52.8669 19.3937 52.4791 18.9705 52.2052 18.4258C51.9344 17.878 51.799 17.2363 51.799 16.5007C51.799 15.7744 51.9344 15.1342 52.2052 14.5803C52.4791 14.0263 52.8607 13.5939 53.3501 13.283C53.8425 12.9722 54.418 12.8168 55.0767 12.8168C55.4767 12.8168 55.8645 12.8829 56.24 13.0153C56.6155 13.1476 56.9525 13.3554 57.251 13.6385C57.5495 13.9216 57.785 14.2894 57.9573 14.7418C58.1297 15.1912 58.2159 15.7375 58.2159 16.3807V16.87H52.5791V15.8359H56.8632C56.8632 15.4728 56.7894 15.1512 56.6416 14.8711C56.4939 14.5879 56.2862 14.3648 56.0184 14.2017C55.7537 14.0386 55.4429 13.957 55.0859 13.957C54.6981 13.957 54.3596 14.0524 54.0703 14.2433C53.784 14.431 53.5624 14.6772 53.4055 14.9819C53.2516 15.2835 53.1747 15.6113 53.1747 15.9652V16.7731C53.1747 17.247 53.2578 17.6502 53.424 17.9826C53.5932 18.315 53.8287 18.5689 54.1303 18.7443C54.4319 18.9167 54.7843 19.0028 55.1874 19.0028C55.449 19.0028 55.6876 18.9659 55.903 18.892C56.1184 18.8151 56.3046 18.7012 56.4616 18.5504C56.6186 18.3996 56.7386 18.2134 56.8217 17.9918L58.1281 18.2273C58.0235 18.612 57.8358 18.949 57.5649 19.2383C57.2972 19.5245 56.9602 19.7476 56.5539 19.9077C56.1508 20.0646 55.6906 20.1431 55.1736 20.1431ZM62.7342 20.1431C62.0479 20.1431 61.457 19.9877 60.9615 19.6768C60.4691 19.3629 60.0905 18.9305 59.8259 18.3796C59.5612 17.8287 59.4288 17.1978 59.4288 16.4869C59.4288 15.7667 59.5643 15.1312 59.8351 14.5803C60.1059 14.0263 60.4875 13.5939 60.98 13.283C61.4724 12.9722 62.0525 12.8168 62.7204 12.8168C63.259 12.8168 63.7391 12.9168 64.1607 13.1168C64.5824 13.3138 64.9224 13.5908 65.181 13.9478C65.4426 14.3048 65.598 14.7218 65.6472 15.1989H64.3038C64.23 14.8665 64.0607 14.5803 63.796 14.3402C63.5344 14.1001 63.1836 13.9801 62.7435 13.9801C62.3588 13.9801 62.0218 14.0817 61.7325 14.2848C61.4462 14.4848 61.2231 14.7711 61.0631 15.1435C60.903 15.5128 60.823 15.9498 60.823 16.4545C60.823 16.9716 60.9015 17.4179 61.0585 17.7933C61.2154 18.1688 61.437 18.4596 61.7232 18.6658C62.0125 18.872 62.3526 18.9751 62.7435 18.9751C63.0051 18.9751 63.242 18.9274 63.4544 18.832C63.6698 18.7335 63.8499 18.5935 63.9945 18.4119C64.1423 18.2304 64.2454 18.0118 64.3038 17.7564H65.6472C65.598 18.215 65.4487 18.6243 65.1994 18.9844C64.9501 19.3445 64.6162 19.6276 64.1977 19.8338C63.7822 20.04 63.2944 20.1431 62.7342 20.1431ZM70.4334 12.9091V14.017H66.5601V12.9091H70.4334ZM67.5988 11.2102H68.9792V17.918C68.9792 18.1857 69.0192 18.3873 69.0992 18.5227C69.1792 18.6551 69.2823 18.7459 69.4085 18.7951C69.5378 18.8413 69.6778 18.8643 69.8286 18.8643C69.9394 18.8643 70.0363 18.8567 70.1194 18.8413C70.2025 18.8259 70.2672 18.8136 70.3133 18.8043L70.5626 19.9446C70.4826 19.9754 70.3687 20.0062 70.221 20.0369C70.0733 20.0708 69.8886 20.0893 69.667 20.0923C69.3039 20.0985 68.9653 20.0339 68.6514 19.8984C68.3375 19.763 68.0836 19.5537 67.8897 19.2706C67.6958 18.9875 67.5988 18.632 67.5988 18.2042V11.2102ZM77.3627 20L74.7405 10.5455H76.2409L78.0829 17.8672H78.1706L80.0864 10.5455H81.5729L83.4888 17.8718H83.5765L85.4138 10.5455H86.9188L84.292 20H82.8563L80.8666 12.9183H80.7927L78.803 20H77.3627ZM89.474 20.157C89.0247 20.157 88.6184 20.0739 88.2553 19.9077C87.8921 19.7384 87.6043 19.4937 87.392 19.1737C87.1827 18.8536 87.0781 18.4612 87.0781 17.9964C87.0781 17.5964 87.155 17.267 87.3089 17.0085C87.4628 16.75 87.6705 16.5453 87.9321 16.3945C88.1937 16.2437 88.4861 16.1299 88.8092 16.0529C89.1324 15.976 89.4617 15.9175 89.7972 15.8775C90.2219 15.8282 90.5666 15.7882 90.8313 15.7575C91.0959 15.7236 91.2883 15.6697 91.4083 15.5959C91.5284 15.522 91.5884 15.402 91.5884 15.2358V15.2035C91.5884 14.8003 91.4745 14.4879 91.2467 14.2663C91.0221 14.0447 90.6866 13.9339 90.2404 13.9339C89.7756 13.9339 89.4094 14.037 89.1416 14.2433C88.877 14.4464 88.6938 14.6726 88.5923 14.9219L87.295 14.6264C87.4489 14.1955 87.6736 13.8478 87.969 13.5831C88.2676 13.3153 88.6107 13.1214 88.9985 13.0014C89.3863 12.8783 89.7941 12.8168 90.2219 12.8168C90.505 12.8168 90.8051 12.8506 91.1221 12.9183C91.4422 12.983 91.7407 13.103 92.0177 13.2784C92.2978 13.4538 92.5271 13.7047 92.7056 14.0309C92.8841 14.354 92.9733 14.7741 92.9733 15.2912V20H91.6253V19.0305H91.5699C91.4807 19.209 91.3468 19.3845 91.1683 19.5568C90.9898 19.7292 90.7605 19.8723 90.4804 19.9862C90.2003 20.1 89.8649 20.157 89.474 20.157ZM89.7741 19.049C90.1557 19.049 90.482 18.9736 90.7528 18.8228C91.0267 18.672 91.2344 18.475 91.376 18.2319C91.5207 17.9857 91.593 17.7225 91.593 17.4425V16.5284C91.5437 16.5777 91.4483 16.6238 91.3068 16.6669C91.1683 16.7069 91.0098 16.7423 90.8313 16.7731C90.6528 16.8008 90.4789 16.8269 90.3096 16.8516C90.1403 16.8731 89.9988 16.8916 89.8849 16.907C89.6171 16.9408 89.3725 16.9978 89.1509 17.0778C88.9324 17.1578 88.7569 17.2732 88.6246 17.424C88.4953 17.5717 88.4307 17.7687 88.4307 18.0149C88.4307 18.3565 88.5569 18.6151 88.8092 18.7905C89.0616 18.9628 89.3832 19.049 89.7741 19.049ZM96.1921 10.5455V20H94.8118V10.5455H96.1921ZM99.4295 10.5455V20H98.0491V10.5455H99.4295ZM104.343 20.1431C103.644 20.1431 103.042 19.9938 102.537 19.6953C102.036 19.3937 101.648 18.9705 101.374 18.4258C101.103 17.878 100.968 17.2363 100.968 16.5007C100.968 15.7744 101.103 15.1342 101.374 14.5803C101.648 14.0263 102.03 13.5939 102.519 13.283C103.011 12.9722 103.587 12.8168 104.246 12.8168C104.646 12.8168 105.033 12.8829 105.409 13.0153C105.784 13.1476 106.121 13.3554 106.42 13.6385C106.718 13.9216 106.954 14.2894 107.126 14.7418C107.299 15.1912 107.385 15.7375 107.385 16.3807V16.87H101.748V15.8359H106.032C106.032 15.4728 105.958 15.1512 105.811 14.8711C105.663 14.5879 105.455 14.3648 105.187 14.2017C104.923 14.0386 104.612 13.957 104.255 13.957C103.867 13.957 103.529 14.0524 103.239 14.2433C102.953 14.431 102.731 14.6772 102.574 14.9819C102.421 15.2835 102.344 15.6113 102.344 15.9652V16.7731C102.344 17.247 102.427 17.6502 102.593 17.9826C102.762 18.315 102.998 18.5689 103.299 18.7443C103.601 18.9167 103.953 19.0028 104.356 19.0028C104.618 19.0028 104.857 18.9659 105.072 18.892C105.287 18.8151 105.474 18.7012 105.631 18.5504C105.787 18.3996 105.908 18.2134 105.991 17.9918L107.297 18.2273C107.192 18.612 107.005 18.949 106.734 19.2383C106.466 19.5245 106.129 19.7476 105.723 19.9077C105.32 20.0646 104.86 20.1431 104.343 20.1431ZM112.226 12.9091V14.017H108.353V12.9091H112.226ZM109.392 11.2102H110.772V17.918C110.772 18.1857 110.812 18.3873 110.892 18.5227C110.972 18.6551 111.075 18.7459 111.201 18.7951C111.331 18.8413 111.471 18.8643 111.622 18.8643C111.732 18.8643 111.829 18.8567 111.912 18.8413C111.996 18.8259 112.06 18.8136 112.106 18.8043L112.356 19.9446C112.276 19.9754 112.162 20.0062 112.014 20.0369C111.866 20.0708 111.682 20.0893 111.46 20.0923C111.097 20.0985 110.758 20.0339 110.444 19.8984C110.13 19.763 109.877 19.5537 109.683 19.2706C109.489 18.9875 109.392 18.632 109.392 18.2042V11.2102Z" fill="black"/>
</svg>
